<svg width="77" height="64" viewBox="0 0 77 64" fill="none" xmlns="http://www.w3.org/2000/svg">
  <path d="M35.0343 59.2278C50.5524 59.2278 63.1323 46.7261 63.1323 31.3043C63.1323 15.8826 50.5524 3.38086 35.0343 3.38086C19.5162 3.38086 6.93629 15.8826 6.93629 31.3043C6.93629 46.7261 19.5162 59.2278 35.0343 59.2278Z" fill="#0B3D91"/>
  <path d="M33.3753 9.05748C33.5493 9.05748 33.6903 8.91733 33.6903 8.74444C33.6903 8.57155 33.5493 8.4314 33.3753 8.4314C33.2013 8.4314 33.0603 8.57155 33.0603 8.74444C33.0603 8.91733 33.2013 9.05748 33.3753 9.05748Z" fill="white"/>
  <path d="M36.6093 9.47472C36.7833 9.47472 36.9243 9.33457 36.9243 9.16168C36.9243 8.98879 36.7833 8.84863 36.6093 8.84863C36.4353 8.84863 36.2943 8.98879 36.2943 9.16168C36.2943 9.33457 36.4353 9.47472 36.6093 9.47472Z" fill="white"/>
  <path d="M40.8513 15.1515C41.0253 15.1515 41.1663 15.0113 41.1663 14.8384C41.1663 14.6655 41.0253 14.5254 40.8513 14.5254C40.6773 14.5254 40.5363 14.6655 40.5363 14.8384C40.5363 15.0113 40.6773 15.1515 40.8513 15.1515Z" fill="white"/>
  <path d="M17.5833 44.3688C17.7573 44.3688 17.8983 44.2286 17.8983 44.0557C17.8983 43.8828 17.7573 43.7427 17.5833 43.7427C17.4093 43.7427 17.2683 43.8828 17.2683 44.0557C17.2683 44.2286 17.4093 44.3688 17.5833 44.3688Z" fill="white"/>
  <path d="M18.4023 46.8732C18.5763 46.8732 18.7173 46.733 18.7173 46.5601C18.7173 46.3872 18.5763 46.2471 18.4023 46.2471C18.2283 46.2471 18.0873 46.3872 18.0873 46.5601C18.0873 46.733 18.2283 46.8732 18.4023 46.8732Z" fill="white"/>
  <path d="M14.4963 44.6659C14.6266 44.6659 14.7322 44.5609 14.7322 44.4315C14.7322 44.302 14.6266 44.197 14.4963 44.197C14.366 44.197 14.2604 44.302 14.2604 44.4315C14.2604 44.5609 14.366 44.6659 14.4963 44.6659Z" fill="white"/>
  <path d="M27.3063 49.5862C27.437 49.5862 27.5429 49.481 27.5429 49.3511C27.5429 49.2212 27.437 49.116 27.3063 49.116C27.1756 49.116 27.0697 49.2212 27.0697 49.3511C27.0697 49.481 27.1756 49.5862 27.3063 49.5862Z" fill="white"/>
  <path d="M47.3977 45.4379C47.528 45.4379 47.6336 45.3329 47.6336 45.2034C47.6336 45.074 47.528 44.969 47.3977 44.969C47.2674 44.969 47.1618 45.074 47.1618 45.2034C47.1618 45.3329 47.2674 45.4379 47.3977 45.4379Z" fill="white"/>
  <path d="M53.2364 39.136C53.3671 39.136 53.473 39.0308 53.473 38.9009C53.473 38.771 53.3671 38.6658 53.2364 38.6658C53.1057 38.6658 52.9998 38.771 52.9998 38.9009C52.9998 39.0308 53.1057 39.136 53.2364 39.136Z" fill="white"/>
  <path d="M24.6183 16.9037C24.7486 16.9037 24.8542 16.7987 24.8542 16.6692C24.8542 16.5398 24.7486 16.4348 24.6183 16.4348C24.488 16.4348 24.3824 16.5398 24.3824 16.6692C24.3824 16.7987 24.488 16.9037 24.6183 16.9037Z" fill="white"/>
  <path d="M31.0443 12.2135C31.1746 12.2135 31.2802 12.1085 31.2802 11.9791C31.2802 11.8496 31.1746 11.7446 31.0443 11.7446C30.914 11.7446 30.8084 11.8496 30.8084 11.9791C30.8084 12.1085 30.914 12.2135 31.0443 12.2135Z" fill="white"/>
  <path d="M30.3464 11.7545C30.4767 11.7545 30.5823 11.6496 30.5823 11.5201C30.5823 11.3906 30.4767 11.2856 30.3464 11.2856C30.2161 11.2856 30.1105 11.3906 30.1105 11.5201C30.1105 11.6496 30.2161 11.7545 30.3464 11.7545Z" fill="white"/>
  <path d="M29.7164 11.2953C29.8467 11.2953 29.9523 11.1903 29.9523 11.0609C29.9523 10.9314 29.8467 10.8264 29.7164 10.8264C29.5861 10.8264 29.4805 10.9314 29.4805 11.0609C29.4805 11.1903 29.5861 11.2953 29.7164 11.2953Z" fill="white"/>
  <path d="M25.6263 18.1149C25.7566 18.1149 25.8622 18.0099 25.8622 17.8804C25.8622 17.751 25.7566 17.646 25.6263 17.646C25.496 17.646 25.3904 17.751 25.3904 17.8804C25.3904 18.0099 25.496 18.1149 25.6263 18.1149Z" fill="white"/>
  <path d="M35.0917 5.91101C35.222 5.91101 35.3276 5.80605 35.3276 5.67657C35.3276 5.5471 35.222 5.44214 35.0917 5.44214C34.9614 5.44214 34.8558 5.5471 34.8558 5.67657C34.8558 5.80605 34.9614 5.91101 35.0917 5.91101Z" fill="white"/>
  <path d="M36.6464 12.6727C36.7767 12.6727 36.8823 12.5678 36.8823 12.4383C36.8823 12.3088 36.7767 12.2039 36.6464 12.2039C36.5161 12.2039 36.4105 12.3088 36.4105 12.4383C36.4105 12.5678 36.5161 12.6727 36.6464 12.6727Z" fill="white"/>
  <path d="M34.1943 11.3524C34.3246 11.3524 34.4302 11.2475 34.4302 11.118C34.4302 10.9885 34.3246 10.8835 34.1943 10.8835C34.064 10.8835 33.9584 10.9885 33.9584 11.118C33.9584 11.2475 34.064 11.3524 34.1943 11.3524Z" fill="white"/>
  <path d="M29.9943 13.1478C30.1246 13.1478 30.2302 13.0429 30.2302 12.9134C30.2302 12.7839 30.1246 12.679 29.9943 12.679C29.864 12.679 29.7584 12.7839 29.7584 12.9134C29.7584 13.0429 29.864 13.1478 29.9943 13.1478Z" fill="white"/>
  <path d="M48.5163 51.6315C48.6466 51.6315 48.7522 51.5265 48.7522 51.397C48.7522 51.2676 48.6466 51.1626 48.5163 51.1626C48.386 51.1626 48.2804 51.2676 48.2804 51.397C48.2804 51.5265 48.386 51.6315 48.5163 51.6315Z" fill="white"/>
  <path d="M17.1843 45.877C17.315 45.877 17.4209 45.7717 17.4209 45.6419C17.4209 45.512 17.315 45.4067 17.1843 45.4067C17.0536 45.4067 16.9477 45.512 16.9477 45.6419C16.9477 45.7717 17.0536 45.877 17.1843 45.877Z" fill="white"/>
  <path d="M33.6063 48.9031C33.737 48.9031 33.8429 48.7978 33.8429 48.668C33.8429 48.5381 33.737 48.4329 33.6063 48.4329C33.4756 48.4329 33.3697 48.5381 33.3697 48.668C33.3697 48.7978 33.4756 48.9031 33.6063 48.9031Z" fill="white"/>
  <path d="M22.0717 45.689C22.2024 45.689 22.3083 45.5837 22.3083 45.4539C22.3083 45.324 22.2024 45.2188 22.0717 45.2188C21.941 45.2188 21.8351 45.324 21.8351 45.4539C21.8351 45.5837 21.941 45.689 22.0717 45.689Z" fill="white"/>
  <path d="M24.1143 49.0025C24.245 49.0025 24.3509 48.8972 24.3509 48.7674C24.3509 48.6375 24.245 48.5322 24.1143 48.5322C23.9836 48.5322 23.8777 48.6375 23.8777 48.7674C23.8777 48.8972 23.9836 49.0025 24.1143 49.0025Z" fill="white"/>
  <path d="M39.1503 46.9149C39.2806 46.9149 39.3862 46.81 39.3862 46.6805C39.3862 46.551 39.2806 46.446 39.1503 46.446C39.02 46.446 38.9144 46.551 38.9144 46.6805C38.9144 46.81 39.02 46.9149 39.1503 46.9149Z" fill="white"/>
  <path d="M47.4397 42.2657C47.57 42.2657 47.6756 42.1608 47.6756 42.0313C47.6756 41.9018 47.57 41.7969 47.4397 41.7969C47.3094 41.7969 47.2038 41.9018 47.2038 42.0313C47.2038 42.1608 47.3094 42.2657 47.4397 42.2657Z" fill="white"/>
  <path d="M53.7243 45.1193C53.8546 45.1193 53.9602 45.0143 53.9602 44.8848C53.9602 44.7554 53.8546 44.6504 53.7243 44.6504C53.594 44.6504 53.4884 44.7554 53.4884 44.8848C53.4884 45.0143 53.594 45.1193 53.7243 45.1193Z" fill="white"/>
  <path d="M55.8663 46.4816C55.9966 46.4816 56.1022 46.3766 56.1022 46.2471C56.1022 46.1177 55.9966 46.0127 55.8663 46.0127C55.736 46.0127 55.6304 46.1177 55.6304 46.2471C55.6304 46.3766 55.736 46.4816 55.8663 46.4816Z" fill="white"/>
  <path d="M56.2184 42.7667C56.3487 42.7667 56.4543 42.6618 56.4543 42.5323C56.4543 42.4028 56.3487 42.2979 56.2184 42.2979C56.0881 42.2979 55.9825 42.4028 55.9825 42.5323C55.9825 42.6618 56.0881 42.7667 56.2184 42.7667Z" fill="white"/>
  <path d="M24.9697 37.5074C25.1 37.5074 25.2056 37.4025 25.2056 37.273C25.2056 37.1435 25.1 37.0386 24.9697 37.0386C24.8394 37.0386 24.7338 37.1435 24.7338 37.273C24.7338 37.4025 24.8394 37.5074 24.9697 37.5074Z" fill="white"/>
  <path d="M25.0593 42.9706C25.2333 42.9706 25.3743 42.8304 25.3743 42.6575C25.3743 42.4846 25.2333 42.3445 25.0593 42.3445C24.8853 42.3445 24.7443 42.4846 24.7443 42.6575C24.7443 42.8304 24.8853 42.9706 25.0593 42.9706Z" fill="white"/>
  <path d="M26.9493 46.9357C27.1233 46.9357 27.2643 46.7955 27.2643 46.6226C27.2643 46.4497 27.1233 46.3096 26.9493 46.3096C26.7753 46.3096 26.6343 46.4497 26.6343 46.6226C26.6343 46.7955 26.7753 46.9357 26.9493 46.9357Z" fill="white"/>
  <path d="M49.5873 42.8036C49.7613 42.8036 49.9023 42.6634 49.9023 42.4905C49.9023 42.3176 49.7613 42.1775 49.5873 42.1775C49.4133 42.1775 49.2723 42.3176 49.2723 42.4905C49.2723 42.6634 49.4133 42.8036 49.5873 42.8036Z" fill="white"/>
  <path d="M57.7353 42.3443C57.9093 42.3443 58.0503 42.2042 58.0503 42.0313C58.0503 41.8584 57.9093 41.7183 57.7353 41.7183C57.5613 41.7183 57.4203 41.8584 57.4203 42.0313C57.4203 42.2042 57.5613 42.3443 57.7353 42.3443Z" fill="white"/>
  <path d="M53.7033 40.6332C53.8773 40.6332 54.0183 40.493 54.0183 40.3201C54.0183 40.1472 53.8773 40.0071 53.7033 40.0071C53.5293 40.0071 53.3883 40.1472 53.3883 40.3201C53.3883 40.493 53.5293 40.6332 53.7033 40.6332Z" fill="white"/>
  <path d="M49.5873 40.8002C49.7613 40.8002 49.9023 40.66 49.9023 40.4871C49.9023 40.3142 49.7613 40.1741 49.5873 40.1741C49.4133 40.1741 49.2723 40.3142 49.2723 40.4871C49.2723 40.66 49.4133 40.8002 49.5873 40.8002Z" fill="white"/>
  <path d="M41.097 8.5482L41.8803 8.47376L41.0984 8.42994C41.0739 8.27968 40.9528 8.16211 40.8002 8.14263L40.7253 7.36768L40.6805 8.14889C40.5391 8.1802 40.4306 8.29776 40.4131 8.44385L39.6123 8.5162L40.4187 8.55933C40.4481 8.69359 40.5573 8.79863 40.6945 8.82368L40.7673 9.62228L40.81 8.82507C40.9549 8.80072 41.0697 8.69011 41.097 8.5482Z" fill="white"/>
  <path d="M27.8768 17.2147L28.6601 17.1403L27.8782 17.0964C27.8544 16.9462 27.7326 16.8286 27.58 16.8091L27.5051 16.0342L27.461 16.8154C27.3189 16.8467 27.2104 16.9643 27.1929 17.1104L26.3921 17.1827L27.1985 17.2258C27.2279 17.3601 27.3371 17.4651 27.4743 17.4902L27.5471 18.2888L27.5905 17.4916C27.7354 17.4679 27.8502 17.3566 27.8768 17.2147Z" fill="white"/>
  <path d="M57.1613 40.128L57.9446 40.0536L57.1627 40.0098C57.1389 39.8595 57.0171 39.7419 56.8645 39.7225L56.7896 38.9475L56.7455 39.7287C56.6041 39.76 56.4956 39.8776 56.4781 40.0237L55.6773 40.096L56.4837 40.1392C56.5131 40.2734 56.6223 40.3785 56.7595 40.4035L56.8323 41.2021L56.8757 40.4049C57.0192 40.3812 57.134 40.2706 57.1613 40.128Z" fill="white"/>
  <path d="M25.2308 52.1085L26.0141 52.0341L25.2322 51.9903C25.2077 51.84 25.0866 51.7224 24.934 51.703L24.8591 50.9287L24.815 51.7092C24.6729 51.7405 24.5644 51.8581 24.5469 52.0042L23.7461 52.0765L24.5525 52.1197C24.5819 52.2539 24.6911 52.3597 24.8283 52.384L24.9011 53.1826L24.9445 52.3854C25.0887 52.3618 25.2042 52.2504 25.2308 52.1085Z" fill="white"/>
  <path d="M54.6728 46.265L55.4561 46.1906L54.6742 46.1467C54.6504 45.9965 54.5286 45.8789 54.376 45.8594L54.3011 45.0845L54.257 45.865C54.1156 45.8963 54.0071 46.0139 53.9896 46.16L53.1888 46.2323L53.9952 46.2754C54.0246 46.4097 54.1338 46.5147 54.271 46.5398L54.3438 47.3384L54.3872 46.5412C54.5307 46.5182 54.6462 46.4069 54.6728 46.265Z" fill="white"/>
  <path d="M41.6976 24.6156C38.4307 25.8775 35.2443 27.0038 32.5556 27.84C27.0921 29.5401 12.1436 34.1426 3.1136 39.9443L3.8696 40.2365C9.3716 37.1478 12.9479 36.1774 16.3856 35.1026C20.1236 33.9339 32.2077 31.1234 37.6796 29.593C39.5283 29.0761 41.6934 28.3993 43.9866 27.5756C43.4532 26.8361 42.8904 26.0946 42.2982 25.3544C42.1001 25.1047 41.8992 24.8584 41.6976 24.6156ZM45.689 30.0827C44.898 30.6135 44.2351 31.0372 43.771 31.3043C41.083 32.8487 27.9783 41.7391 24.997 43.7843C22.0157 45.8295 13.741 53.593 11.305 55.8469L11.221 56.7645C19.075 49.7523 21.539 48.0229 24.661 45.6626C28.525 42.7408 36.5183 37.3356 39.235 35.6034C41.832 33.9478 44.1742 32.425 46.2763 31.0316C46.242 30.9746 46.2077 30.9175 46.1734 30.8598C46.0152 30.6017 45.8535 30.3429 45.689 30.0827ZM57.9663 17.1965C54.1401 19.4254 48.1096 22.1154 42.259 24.3979C42.399 24.5683 42.5383 24.7401 42.6769 24.9134C43.3307 25.7314 43.9474 26.5551 44.5277 27.3794C49.1267 25.696 54.173 23.4365 58.177 20.7019C56.2695 22.4981 49.9632 27.1819 46.1181 29.7927C46.3162 30.1134 46.508 30.434 46.6935 30.7534C52.5189 26.8793 56.4389 24.0278 58.723 22.121C61.873 19.4914 69.055 13.6062 71.785 5.71753C66.9963 11.7704 61.3347 15.2341 57.9663 17.1965Z" fill="#FF342B"/>
  <path d="M31.4188 38.2186C30.7993 37.4436 29.9425 36.4057 29.2992 35.6008C28.4389 34.5246 27.643 33.4373 26.9136 32.3514C26.6756 32.4106 26.4383 32.4697 26.201 32.5288C27.0816 33.8944 28.0595 35.2579 29.1249 36.5907C29.9033 37.5646 30.611 38.3486 30.9736 38.8363C31.0471 38.9351 31.1927 39.1535 31.3894 39.4443C31.6162 39.2913 31.8451 39.1368 32.0761 38.981C31.8528 38.7396 31.6323 38.4857 31.4188 38.2186ZM35.9408 42.2979C35.4319 41.8193 34.1978 41.02 32.9133 39.8207C32.6298 40.014 32.3435 40.2102 32.0565 40.4078C32.886 41.5695 34.0158 42.9963 34.9006 43.4123C36.2334 44.0398 36.5925 42.9114 35.9408 42.2979ZM42.6769 24.9135C35.3325 15.7267 26.3606 10.6798 22.4924 13.7344C19.488 16.1066 20.7214 23.0394 24.8626 30.3222C25.0768 30.2492 25.2889 30.1775 25.4989 30.1066C21.3192 23.0109 20.1754 16.4168 23.009 14.1789C26.5699 11.3671 35.168 16.4335 42.2996 25.3539C43.7759 27.2001 45.0737 29.0533 46.1727 30.86C50.3811 37.7817 51.6726 44.0412 48.7648 46.5963C47.8751 47.3782 45.1563 47.685 41.5947 46.092C41.545 46.1539 41.6248 46.3215 41.6871 46.3626C44.7615 47.5911 47.7064 48.0593 49.1932 46.8857C52.766 44.0641 50.0213 34.1003 42.6769 24.9135Z" fill="white"/>
  <path d="M11.1783 26.0034H15.8823L19.8303 32.6608C19.8303 32.6608 19.8303 27.8399 19.8303 27.4643C19.8303 26.8799 19.0848 26.1182 18.8223 26.0034C19.1373 26.0034 21.8883 26.0034 22.0773 26.0034C21.8778 26.0556 21.2373 26.8278 21.2373 27.4643C21.2373 27.7773 21.2373 34.7686 21.2373 35.1025C21.2373 35.5721 21.9198 36.2191 22.2453 36.4695H17.7093L13.6983 29.7808C13.6983 29.7808 13.6983 34.7686 13.6983 35.0399C13.6983 35.5617 14.2128 36.0625 14.7483 36.4904H11.2833C11.7768 36.2817 12.2493 35.6243 12.2913 35.1025C12.3333 34.5808 12.2913 27.8504 12.2913 27.5582C12.2913 26.9217 11.6718 26.3999 11.1783 26.0034Z" fill="white"/>
  <path d="M54.2073 36.4695H60.4653C60.1188 36.386 59.7303 35.9791 59.5203 35.4365C59.3103 34.8939 55.9923 26.0034 55.9923 26.0034H53.613C52.9382 26.4862 52.2151 26.9954 51.443 27.5318C51.4409 27.5512 51.4388 27.5707 51.4353 27.5895C51.3317 28.2156 49.4697 34.9175 49.3563 35.2486C49.1988 35.7078 48.3903 36.2191 48.0648 36.4904H51.4353C51.0993 36.1147 50.8263 35.7495 50.8893 35.3321C50.9523 34.9147 51.1413 34.0799 51.1413 34.0799H54.6273C54.7848 34.4973 54.9024 34.8723 54.9633 35.2278C55.0368 35.6556 54.5958 36.1356 54.2073 36.4695ZM51.4563 32.7443L52.6323 28.9252L54.1863 32.7443H51.4563ZM50.9264 26.3846C51.0993 26.258 51.2729 26.1307 51.4458 26.0034H50.5323C50.6233 26.0869 50.7738 26.2184 50.9264 26.3846Z" fill="white"/>
  <path d="M26.9913 35.3321C27.0543 34.9147 27.2433 34.0799 27.2433 34.0799H30.7293C30.8868 34.4973 31.0044 34.8723 31.0653 35.2278C31.1388 35.6556 30.6978 36.1356 30.3093 36.4695H35.819C35.9338 36.393 36.0479 36.3165 36.162 36.2406C35.9485 36.0528 35.7518 35.7711 35.6223 35.4365C35.4123 34.8939 32.0943 26.0034 32.0943 26.0034H26.6343C26.8968 26.2434 27.6528 26.8904 27.5373 27.5895C27.4344 28.2156 25.5717 34.9175 25.4583 35.2486C25.3008 35.7078 24.4923 36.2191 24.1668 36.4904H27.5373C27.2013 36.1147 26.9283 35.7495 26.9913 35.3321ZM28.7343 28.9252L30.2883 32.7443H27.5583L28.7343 28.9252Z" fill="white"/>
  <path d="M46.0236 31.1986C44.996 31.879 43.9117 32.5892 42.7693 33.3308C43.2817 33.5777 43.6898 33.888 43.729 34.2887C43.8018 35.0414 42.28 35.4052 40.9045 35.2487C40.6294 35.2174 40.3592 35.1457 40.1016 35.0497C39.816 35.2327 39.5276 35.417 39.235 35.6035C38.9375 35.7934 38.5763 36.0271 38.164 36.297V37.3774C38.437 36.8452 39.0341 36.3687 39.4975 36.3443C39.697 36.3339 40.39 36.9704 43.246 36.8139C44.632 36.7381 47.3095 35.2696 47.2675 33.5791C47.2423 32.5802 46.7173 31.801 46.0236 31.1986ZM38.1633 33.8087V34.9092C38.416 34.7416 38.6652 34.5767 38.9095 34.416C38.5252 34.1503 38.2529 33.9019 38.1633 33.8087ZM45.0471 30.5078C44.7811 30.3513 44.5116 30.2143 44.2533 30.0932C42.9093 29.4671 41.5023 29.3523 41.2083 28.5071C41.0011 27.911 41.5863 27.3593 43.0143 27.3802C44.4423 27.401 45.7653 28.2463 46.1223 28.5489V25.8567C46.0173 25.961 45.5567 26.4863 45.1353 26.3993C44.3268 26.2323 42.9513 26.0146 41.3763 26.0236C39.5703 26.0341 38.0163 27.4212 37.9638 29.175C37.8903 31.6271 39.8643 32.295 40.9773 32.681C41.0921 32.7207 41.223 32.7631 41.3651 32.8083C42.4326 32.1183 43.2768 31.5868 43.771 31.3036C44.1028 31.1137 44.5375 30.841 45.0471 30.5078Z" fill="white"/>
</svg>
