<svg width="64" height="64" viewBox="0 0 64 64" fill="none" xmlns="http://www.w3.org/2000/svg">
    <g clip-path="url(#clip0_601_50)">
        <path d="M48.4 0H35.6V12.9888C40.1803 13.4922 44.5713 15.0939 48.4 17.6576V0ZM29.2 0H16.4V17.6576C20.2288 15.0939 24.6198 13.4922 29.2 12.9888V0Z"
              fill="#0B3D91"/>
        <path d="M32.4004 19.2C38.3411 19.2001 44.0385 21.5598 48.2393 25.7605C52.4401 29.9613 54.7998 35.6595 54.7998 41.6003C54.7997 47.541 52.44 53.2385 48.2393 57.4392C44.0385 61.6399 38.3411 63.9997 32.4004 63.9998C26.4595 63.9998 20.7614 61.64 16.5605 57.4392C12.3599 53.2385 10.0001 47.541 10 41.6003C10 35.6595 12.3597 29.9613 16.5605 25.7605C20.7614 21.5597 26.4595 19.2 32.4004 19.2ZM28.4805 36.739L19.7217 38.0095L26.0605 44.1921L24.5635 52.9187L32.4004 48.7996L40.2402 52.9187L38.7422 44.1921L45.082 38.0095L36.3203 36.739L32.4004 28.7996L28.4805 36.739Z"
              fill="#C3CDDD"/>
    </g>
    <defs>
        <clipPath id="clip0_601_50">
            <rect width="64" height="64" fill="white"/>
        </clipPath>
    </defs>
</svg>
