<svg width="64" height="64" viewBox="0 0 64 64" fill="none" xmlns="http://www.w3.org/2000/svg">
    <g clip-path="url(#clip0_601_39)">
        <path d="M24 1.11197C24.3905 1.58642 24.6297 2.16706 24.6867 2.77886C24.7437 3.39067 24.616 4.00552 24.32 4.54397C22.0074 8.78987 20.7997 13.5491 20.808 18.384C20.808 34.468 33.92 47.492 50.08 47.492C52.188 47.492 54.24 47.272 56.212 46.852C56.8165 46.7211 57.4462 46.7711 58.0224 46.9959C58.5986 47.2207 59.0958 47.6103 59.452 48.116C59.828 48.6418 60.0196 49.2771 59.9972 49.923C59.9748 50.569 59.7395 51.1895 59.328 51.688C56.1907 55.5417 52.233 58.6468 47.7433 60.7767C43.2537 62.9067 38.3453 64.0079 33.376 64C14.936 64 0 49.144 0 30.84C0 17.064 8.456 5.24797 20.496 0.239973C21.0958 -0.0134993 21.7616 -0.0655234 22.3934 0.0917159C23.0252 0.248955 23.589 0.606968 24 1.11197Z"
              fill="#C3CDDD"/>
        <path d="M43.176 12.592C43.2333 12.4188 43.3438 12.268 43.4917 12.1612C43.6397 12.0543 43.8175 11.9968 44 11.9968C44.1824 11.9968 44.3603 12.0543 44.5082 12.1612C44.6561 12.268 44.7666 12.4188 44.824 12.592L46.372 17.24C47.064 19.312 48.688 20.936 50.76 21.628L55.408 23.176C55.5812 23.2334 55.7319 23.3438 55.8388 23.4918C55.9456 23.6397 56.0031 23.8175 56.0031 24C56.0031 24.1825 55.9456 24.3603 55.8388 24.5082C55.7319 24.6561 55.5812 24.7666 55.408 24.824L50.76 26.372C49.7381 26.7125 48.8095 27.2862 48.0479 28.0479C47.2862 28.8095 46.7124 29.7381 46.372 30.76L44.824 35.408C44.7666 35.5812 44.6561 35.732 44.5082 35.8388C44.3603 35.9456 44.1824 36.0031 44 36.0031C43.8175 36.0031 43.6397 35.9456 43.4917 35.8388C43.3438 35.732 43.2333 35.5812 43.176 35.408L41.628 30.76C41.2875 29.7381 40.7137 28.8095 39.9521 28.0479C39.1904 27.2862 38.2619 26.7125 37.24 26.372L32.592 24.824C32.4188 24.7666 32.268 24.6561 32.1612 24.5082C32.0543 24.3603 31.9968 24.1825 31.9968 24C31.9968 23.8175 32.0543 23.6397 32.1612 23.4918C32.268 23.3438 32.4188 23.2334 32.592 23.176L37.24 21.628C38.2619 21.2875 39.1904 20.7137 39.9521 19.9521C40.7137 19.1905 41.2875 18.2619 41.628 17.24L43.176 12.592ZM55.452 0.395992C55.4915 0.282097 55.5655 0.183336 55.6637 0.113438C55.7619 0.0435411 55.8794 0.00598145 56 0.00598145C56.1205 0.00598145 56.2381 0.0435411 56.3363 0.113438C56.4345 0.183336 56.5085 0.282097 56.548 0.395992L57.58 3.49199C58.04 4.87599 59.124 5.95999 60.508 6.41999L63.604 7.45199C63.7179 7.49148 63.8166 7.56547 63.8865 7.66368C63.9564 7.7619 63.994 7.87945 63.994 7.99999C63.994 8.12054 63.9564 8.23809 63.8865 8.3363C63.8166 8.43451 63.7179 8.50851 63.604 8.54799L60.508 9.57999C59.8259 9.80688 59.2062 10.1897 58.6979 10.6979C58.1896 11.2062 57.8069 11.8259 57.58 12.508L56.548 15.604C56.5085 15.7179 56.4345 15.8166 56.3363 15.8865C56.2381 15.9564 56.1205 15.994 56 15.994C55.8794 15.994 55.7619 15.9564 55.6637 15.8865C55.5655 15.8166 55.4915 15.7179 55.452 15.604L54.42 12.508C54.1931 11.8259 53.8103 11.2062 53.302 10.6979C52.7938 10.1897 52.174 9.80688 51.492 9.57999L48.396 8.54799C48.2821 8.50851 48.1833 8.43451 48.1134 8.3363C48.0435 8.23809 48.006 8.12054 48.006 7.99999C48.006 7.87945 48.0435 7.7619 48.1134 7.66368C48.1833 7.56547 48.2821 7.49148 48.396 7.45199L51.492 6.41999C52.876 5.95999 53.96 4.87599 54.42 3.49199L55.452 0.399992V0.395992Z"
              fill="#0B3D91"/>
    </g>
    <defs>
        <clipPath id="clip0_601_39">
            <rect width="64" height="64" fill="white"/>
        </clipPath>
    </defs>
</svg>
