<svg width="64" height="64" viewBox="0 0 64 64" fill="none" xmlns="http://www.w3.org/2000/svg">
    <g clip-path="url(#clip0_601_33)">
        <path d="M10.4 19.2C13.02 19.2 15.34 20.46 16.8 22.4H45.6C52.53 22.4 59.1 24.67 63.52 30.56C64.16 31.41 64.16 32.59 63.52 33.44C59.1 39.33 52.53 41.6 45.6 41.6H16.8C15.34 43.54 13.02 44.8 10.4 44.8H9.6V54.4H8C5.349 54.4 3.2 52.25 3.2 49.6V44.8H4C1.791 44.8 0 43.01 0 40.8V23.2C0 20.99 1.789 19.2 3.996 19.2H3.2V14.4C3.2 11.749 5.349 9.59998 8 9.59998H9.6V19.2H10.4ZM47.64 27.2C47.31 27.2 47.2 27.31 47.2 27.64V36.36C47.2 36.6 47.31 36.8 47.64 36.8C49.61 36.8 51.2 35.21 51.2 33.24V30.76C51.2 28.79 49.61 27.2 47.64 27.2Z"
              fill="#0B3D91"/>
        <path d="M12.8 54.4H12.91C17.06 54.4 21.04 53.21 24.52 51.21L35.2 44.8H12.8V54.4Z" fill="#C3CDDD"/>
        <path d="M12.8 19.2H35.2L24.52 12.792C21.04 10.703 17.06 9.59998 12.91 9.59998H12.8V19.2Z" fill="#C3CDDD"/>
    </g>
    <defs>
        <clipPath id="clip0_601_33">
            <rect width="64" height="64" fill="white"/>
        </clipPath>
    </defs>
</svg>
