<svg width="64" height="64" viewBox="0 0 64 64" fill="none" xmlns="http://www.w3.org/2000/svg">
    <path d="M13.445 31.25C13.1799 30.7908 12.7432 30.4556 12.231 30.3183C11.7189 30.1809 11.1731 30.2526 10.7138 30.5175L4.5 34.1012C3.91831 34.4346 3.41019 34.8824 3.0063 35.4176C2.6024 35.9527 2.31112 36.5642 2.15 37.215C1.83998 38.5055 2.04393 39.8659 2.71875 41.0087L3.26375 41.9512C3.92722 43.0985 5.01903 43.9354 6.29926 44.2781C7.57949 44.6208 8.94339 44.4412 10.0913 43.7787L16.3 40.2C16.5277 40.0688 16.7272 39.8941 16.8873 39.6857C17.0474 39.4774 17.1649 39.2395 17.233 38.9858C17.3012 38.732 17.3187 38.4673 17.2845 38.2068C17.2503 37.9463 17.1651 37.6951 17.0338 37.4675L13.445 31.25Z"
          fill="#C3CDDD"/>
    <path d="M47.855 55.1L36.09 31.75C36.0614 31.693 36.0557 31.6271 36.074 31.566C36.0924 31.5049 36.1334 31.4531 36.1887 31.4213L37.2262 30.8225C37.4538 30.6912 37.6532 30.5164 37.8132 30.308C37.9732 30.0996 38.0905 29.8618 38.1586 29.608C38.2266 29.3543 38.2439 29.0896 38.2097 28.8291C38.1754 28.5687 38.0901 28.3175 37.9587 28.09L32.0175 17.7988C31.8863 17.5711 31.7115 17.3715 31.5032 17.2114C31.2949 17.0513 31.057 16.9339 30.8033 16.8657C30.5495 16.7976 30.2848 16.7801 30.0243 16.8143C29.7638 16.8485 29.5126 16.9337 29.285 17.065L18.4875 23.29C17.9175 23.6166 17.4179 24.053 17.0178 24.5739C16.6176 25.0949 16.3248 25.6901 16.1562 26.325C16.0416 26.7215 15.9839 27.1323 15.985 27.545C15.9925 28.495 17.135 30.3825 18.25 32.33C19.4487 34.4238 20.655 36.565 21.5425 37.0988C22.1075 37.4388 23.105 37.7113 23.9437 37.7113H24.0487L14.1337 59.1613C14.0233 59.3997 13.9609 59.6577 13.9502 59.9202C13.9394 60.1828 13.9806 60.445 14.0712 60.6917C14.1618 60.9384 14.3002 61.1648 14.4784 61.358C14.6566 61.5511 14.8711 61.7073 15.1097 61.8175C15.3483 61.9277 15.6063 61.9899 15.8689 62.0003C16.1315 62.0108 16.3936 61.9694 16.6402 61.8785C16.8868 61.7876 17.1131 61.649 17.3061 61.4706C17.4991 61.2922 17.655 61.0775 17.765 60.8388L29.475 35.5075C29.5611 35.32 29.7036 35.164 29.8825 35.0613L32.2837 33.6763C32.3132 33.6594 32.3459 33.6488 32.3796 33.6449C32.4134 33.6411 32.4475 33.6442 32.4801 33.654C32.5126 33.6639 32.5428 33.6802 32.5688 33.7021C32.5947 33.724 32.616 33.7509 32.6312 33.7813L44.2825 56.9063C44.4007 57.1408 44.5639 57.3498 44.7629 57.5213C44.9618 57.6928 45.1926 57.8234 45.4421 57.9057C45.6915 57.988 45.9547 58.0204 46.2167 58.001C46.4786 57.9815 46.7342 57.9107 46.9687 57.7925C47.2033 57.6743 47.4123 57.5111 47.5838 57.3121C47.7553 57.1132 47.8859 56.8824 47.9682 56.6329C48.0505 56.3835 48.0829 56.1203 48.0634 55.8583C48.044 55.5964 47.9732 55.3408 47.855 55.1063V55.1ZM61.2762 14.4675L55.5112 4.50003C54.8459 3.35445 53.7539 2.51903 52.4741 2.17655C51.1944 1.83407 49.8311 2.0124 48.6825 2.67253L37.015 9.39503C36.4448 9.72137 35.9451 10.1577 35.5449 10.6787C35.1447 11.1997 34.852 11.795 34.6837 12.43C34.518 12.9654 34.464 13.5291 34.525 14.0863C34.7425 15.6638 36.15 17.8863 37.8262 20.8225C39.5237 23.7888 41.44 27.1325 42.4425 27.8563C43.2899 28.4553 44.3022 28.7772 45.34 28.7775C46.2142 28.7778 47.0731 28.5476 47.83 28.11L59.5 21.3838C60.0805 21.0512 60.5878 20.6047 60.9914 20.0711C61.395 19.5375 61.6866 18.9279 61.8487 18.2788C62.161 16.9823 61.9557 15.6151 61.2762 14.4675Z"
          fill="#0B3D91"/>
</svg>
